<svg width="28" height="28" viewBox="0 0 28 28" fill="none" xmlns="http://www.w3.org/2000/svg">
<path d="M14.0013 0.666626C6.66797 0.666626 0.667969 6.66663 0.667969 14C0.667969 21.3333 6.66797 27.3333 14.0013 27.3333C21.3346 27.3333 27.3346 21.3333 27.3346 14V12.6666C26.5346 13.8666 25.7346 14.9333 25.068 15.8666C24.5346 18.8 22.9346 21.3333 20.668 23.0666C20.5346 22.6666 20.4013 22.1333 20.268 21.7333C20.1346 21.2 20.0013 20.6666 19.7346 20.1333C19.6013 19.6 19.468 19.0666 19.2013 18.6666C19.068 18.5333 18.8013 18.4 18.5346 18.2666C17.6013 18 16.4013 18.4 15.7346 17.4666C15.468 17.0666 15.468 16.6666 15.6013 16.1333C15.868 15.7333 16.0013 15.3333 16.268 14.9333C16.5346 14.4 16.9346 13.7333 17.068 13.0666C16.0013 11.4666 14.9346 9.59996 14.4013 7.86663H14.268C14.1346 7.86663 14.1346 7.86663 14.0013 7.73329C13.7346 7.46663 13.6013 6.79996 13.7346 6.39996C13.7346 5.73329 14.1346 5.33329 14.0013 4.66663C14.0013 4.53329 13.868 3.46663 13.868 3.46663C13.468 3.46663 12.8013 3.46663 12.9346 2.79996V2.66663H14.0013H14.668C14.9346 1.86663 15.468 1.19996 15.868 0.666626H14.0013ZM22.0013 0.666626C19.068 0.666626 16.668 3.06663 16.668 5.99996C16.668 8.93329 22.0013 15.3333 22.0013 15.3333C22.0013 15.3333 27.3346 8.93329 27.3346 5.99996C27.3346 3.06663 24.9346 0.666626 22.0013 0.666626ZM22.0013 3.99996C23.068 3.99996 24.0013 4.93329 24.0013 5.99996C24.0013 7.06663 23.068 7.99996 22.0013 7.99996C20.9346 7.99996 20.0013 7.06663 20.0013 5.99996C20.0013 4.93329 20.9346 3.99996 22.0013 3.99996ZM8.66797 4.79996C9.2013 4.79996 9.6013 4.79996 10.0013 4.93329C10.4013 5.06663 10.8013 5.33329 11.068 5.59996C11.3346 5.86663 11.7346 6.26663 11.7346 6.66663C11.7346 6.79996 11.7346 6.93329 11.6013 6.93329C11.468 7.06663 11.3346 7.06663 11.2013 7.06663C10.8013 7.06663 10.4013 7.06663 10.1346 6.93329C10.0013 6.79996 9.73464 6.53329 9.46797 6.39996C8.8013 6.13329 7.6013 7.86663 7.46797 8.39996C7.33463 8.79996 7.33463 9.73329 8.0013 9.86662C8.4013 9.86662 9.33463 9.06663 9.6013 8.79996C9.86797 8.66663 10.0013 8.53329 10.268 8.39996C11.3346 8.26663 12.1346 9.19996 12.4013 10.1333C12.668 11.2 10.8013 12 10.0013 12.2666C9.73463 12.4 9.6013 12.1333 9.33463 12.2666C8.66797 12.5333 7.86797 13.4666 7.86797 14.1333C7.86797 14.8 7.73463 15.4666 7.6013 16.1333C7.46797 16.1333 7.33463 16 7.33463 16V15.7333C7.33463 15.3333 7.2013 14.9333 6.8013 14.6666C6.66797 14.6666 6.66797 14.5333 6.53464 14.5333C6.13463 14.4 5.73464 14 5.33464 14.4C5.06797 14.6666 4.8013 15.0666 4.8013 15.4666C4.8013 15.6 4.8013 15.7333 4.93463 15.8666C5.2013 16 5.46797 15.8666 5.73464 15.8666C5.86797 15.8666 6.0013 16.1333 6.13463 16.2666C6.4013 16.6666 6.53464 17.3333 7.06797 17.3333H8.0013H9.73464C10.1346 17.4666 10.8013 17.6 11.068 17.8666C11.2013 18.1333 11.2013 18.4 11.3346 18.6666C11.868 19.3333 12.8013 19.3333 13.6013 19.6C13.868 19.7333 14.0013 19.8666 14.0013 20.1333C14.0013 20.5333 13.868 21.0666 13.7346 21.4666C13.6013 21.8666 13.468 22.4 13.2013 22.6666C12.9346 22.9333 12.668 23.0666 12.4013 23.2C11.868 23.4666 11.6013 24 11.3346 24.4C11.3346 24.4 11.2013 24.6666 11.068 24.8C10.0013 24.5333 9.06797 24.1333 8.13463 23.4666V23.2C8.0013 22.6666 7.86797 22.2666 7.73464 21.8666C7.46797 21.2 7.06797 20.4 6.93463 19.7333C6.93463 19.0666 7.06797 18.4 6.66797 17.8666C6.26797 17.2 5.2013 17.2 4.53464 16.8C4.0013 16.2666 3.33464 15.7333 2.8013 15.0666V14C2.8013 10.4 4.53464 7.19996 7.2013 5.06663C7.73464 4.93329 8.13463 4.79996 8.66797 4.79996Z" fill="#810F40"/>
</svg>
