<svg width="16" height="13" viewBox="0 0 16 13" fill="none" xmlns="http://www.w3.org/2000/svg">
<path d="M10.2207 1.77997C10.0882 1.63779 10.0161 1.44975 10.0195 1.25545C10.0229 1.06114 10.1016 0.87576 10.239 0.738347C10.3765 0.600934 10.5618 0.522222 10.7561 0.518794C10.9504 0.515365 11.1385 0.587489 11.2807 0.719969L15.7807 5.21997C15.9211 5.36059 16 5.55122 16 5.74997C16 5.94872 15.9211 6.13934 15.7807 6.27997L11.2807 10.78C11.1385 10.9124 10.9504 10.9846 10.7561 10.9811C10.5618 10.9777 10.3765 10.899 10.239 10.7616C10.1016 10.6242 10.0229 10.4388 10.0195 10.2445C10.0161 10.0502 10.0882 9.86214 10.2207 9.71997L13.4407 6.49997H7.25066C5.72567 6.49997 4.26313 7.10577 3.1848 8.1841C2.10646 9.26244 1.50066 10.725 1.50066 12.25C1.50066 12.4489 1.42164 12.6396 1.28099 12.7803C1.14034 12.921 0.949573 13 0.75066 13C0.551747 13 0.360982 12.921 0.220329 12.7803C0.0796766 12.6396 0.000659943 12.4489 0.000659943 12.25C0.000659943 10.3271 0.764498 8.48308 2.12414 7.12344C3.48377 5.76381 5.32784 4.99997 7.25066 4.99997H13.4407L10.2207 1.77997Z" fill="#B74F80"/>
</svg>
