<svg width="15" height="28" viewBox="0 0 15 28" fill="none" xmlns="http://www.w3.org/2000/svg">
<path d="M14.3698 15.155C14.7665 14.7583 14.9648 14.2217 14.9648 13.545C14.9648 13.2417 14.9182 12.9617 14.8248 12.705C14.7315 12.4483 14.5798 12.25 14.3698 12.11L4.00984 1.61C3.77651 1.37667 3.53734 1.19583 3.29234 1.0675C3.04734 0.939167 2.74984 0.875 2.39984 0.875C1.81651 0.875 1.33818 1.07333 0.964844 1.47C0.73151 1.68 0.550677 1.925 0.422344 2.205C0.29401 2.485 0.229844 2.765 0.229844 3.045C0.229844 3.745 0.41651 4.28167 0.789844 4.655L9.71484 13.72L0.649844 23.485C0.27651 23.8583 0.0898438 24.395 0.0898438 25.095C0.0898438 25.655 0.323177 26.1917 0.789844 26.705C1.25651 26.985 1.79318 27.125 2.39984 27.125C2.70318 27.125 2.99484 27.0608 3.27484 26.9325C3.55484 26.8042 3.79984 26.6233 4.00984 26.39L14.3698 15.155Z" fill="white"/>
</svg>
