<svg width="15" height="28" viewBox="0 0 15 28" fill="none" xmlns="http://www.w3.org/2000/svg">
<path d="M12.6205 0.875C12.3405 0.875 12.0663 0.933332 11.798 1.05C11.5296 1.16667 11.3138 1.30667 11.1505 1.47L0.790469 11.97C0.417135 12.3433 0.230469 12.8742 0.230469 13.5625C0.230469 14.2508 0.417135 14.7817 0.790469 15.155L11.1505 26.39C11.4071 26.6467 11.6463 26.8333 11.868 26.95C12.0896 27.0667 12.3405 27.125 12.6205 27.125C13.2971 27.125 13.8338 26.9267 14.2305 26.53C14.4405 26.32 14.6155 26.0692 14.7555 25.7775C14.8955 25.4858 14.9655 25.2 14.9655 24.92C14.9655 24.2433 14.7205 23.7183 14.2305 23.345L5.34047 13.545L14.2305 4.375C14.6038 4.00167 14.7905 3.55833 14.7905 3.045C14.7905 2.36833 14.6038 1.84333 14.2305 1.47C13.9271 1.23667 13.6588 1.07917 13.4255 0.997499C13.1921 0.915833 12.9238 0.875 12.6205 0.875Z" fill="white"/>
</svg>
