<svg width="32" height="32" viewBox="0 0 32 32" fill="none" xmlns="http://www.w3.org/2000/svg">
<path fill-rule="evenodd" clip-rule="evenodd" d="M16.0003 12.8V16H19.2003C19.2003 14.232 17.7683 12.8 16.0003 12.8ZM16.0003 6.4V9.6C19.5299 9.6 22.4003 12.4704 22.4003 16H25.6003C25.6003 10.6976 21.3027 6.4 16.0003 6.4ZM16.0003 0V3.2C23.0579 3.2 28.8003 8.9424 28.8003 16H32.0003C32.0003 7.1632 24.8371 0 16.0003 0ZM23.4435 29.1742C23.4243 29.2318 23.4259 29.2238 23.4435 29.1742V29.1742ZM22.5875 24.925C21.4755 24.3266 20.3507 23.6447 19.1875 23.1695C16.9395 22.2527 17.0915 24.963 15.4867 25.8414C14.4435 26.4126 12.9715 25.3775 12.0611 24.8047C10.4707 23.8031 9.06108 22.485 7.88987 20.9602C7.28988 20.181 5.96508 18.7155 6.12828 17.6227C6.38748 15.8883 8.43867 15.8013 7.85147 13.6797C7.53787 12.5437 6.97628 11.4257 6.55548 10.3313C5.99228 8.86405 5.76027 7.92469 4.11707 8.00469C2.92987 8.06229 2.14268 8.56987 1.41308 9.52188C-0.561319 12.0931 -0.263722 15.5597 1.06268 18.3805C2.94108 22.3725 6.16028 26.136 9.59868 28.568C11.9379 30.2224 15.0195 31.7245 17.8515 31.9789C19.9251 32.1661 22.8259 31.045 23.5683 28.7938C23.5171 28.9506 23.4675 29.1022 23.4435 29.1742C23.4611 29.1182 23.4995 29.0049 23.5683 28.7938C23.6435 28.5666 23.6803 28.4528 23.6979 28.4016C23.6755 28.4688 23.6243 28.6259 23.5699 28.7891C24.2227 26.8051 24.3027 25.8482 22.5875 24.925ZM23.6979 28.4016C23.7107 28.36 23.7107 28.3632 23.6979 28.4016V28.4016Z" fill="#810F40"/>
</svg>
