<svg width="15" height="27" viewBox="0 0 15 27" fill="none" xmlns="http://www.w3.org/2000/svg">
<path d="M14.3698 14.655C14.7665 14.2583 14.9648 13.7217 14.9648 13.045C14.9648 12.7417 14.9182 12.4617 14.8248 12.205C14.7315 11.9483 14.5798 11.75 14.3698 11.61L4.00984 1.11C3.77651 0.876667 3.53734 0.695833 3.29234 0.567499C3.04734 0.439167 2.74984 0.375 2.39984 0.375C1.81651 0.375 1.33818 0.573334 0.964844 0.969999C0.73151 1.18 0.550677 1.425 0.422344 1.705C0.29401 1.985 0.229844 2.265 0.229844 2.545C0.229844 3.245 0.41651 3.78167 0.789844 4.155L9.71484 13.22L0.649844 22.985C0.27651 23.3583 0.0898438 23.895 0.0898438 24.595C0.0898438 25.155 0.323177 25.6917 0.789844 26.205C1.25651 26.485 1.79318 26.625 2.39984 26.625C2.70318 26.625 2.99484 26.5608 3.27484 26.4325C3.55484 26.3042 3.79984 26.1233 4.00984 25.89L14.3698 14.655Z" fill="#8F9B6D"/>
</svg>
