<svg width="15" height="27" viewBox="0 0 15 27" fill="none" xmlns="http://www.w3.org/2000/svg">
<path d="M0.649688 14.655C0.253021 14.2583 0.0546875 13.7217 0.0546875 13.045C0.0546875 12.7417 0.101354 12.4617 0.194688 12.205C0.288021 11.9483 0.439688 11.75 0.649688 11.61L11.0097 1.11C11.243 0.876667 11.4822 0.695833 11.7272 0.567499C11.9722 0.439167 12.2697 0.375 12.6197 0.375C13.203 0.375 13.6814 0.573334 14.0547 0.969999C14.288 1.18 14.4689 1.425 14.5972 1.705C14.7255 1.985 14.7897 2.265 14.7897 2.545C14.7897 3.245 14.603 3.78167 14.2297 4.155L5.30469 13.22L14.3697 22.985C14.743 23.3583 14.9297 23.895 14.9297 24.595C14.9297 25.155 14.6964 25.6917 14.2297 26.205C13.763 26.485 13.2264 26.625 12.6197 26.625C12.3164 26.625 12.0247 26.5608 11.7447 26.4325C11.4647 26.3042 11.2197 26.1233 11.0097 25.89L0.649688 14.655Z" fill="#8F9B6D"/>
</svg>
