<svg width="60" height="60" viewBox="0 0 60 60" fill="none" xmlns="http://www.w3.org/2000/svg">
<g opacity="0.3">
<path d="M34.3097 9.24916C34.0488 9.66614 33.8727 10.1304 33.7914 10.6154C33.7101 11.1003 33.7252 11.5966 33.8359 12.0757C33.9466 12.5548 34.1507 13.0075 34.4366 13.4078C34.7224 13.8082 35.0844 14.1484 35.5019 14.409C40.0668 17.2449 43.6921 21.3637 45.9234 26.2489C43.667 26.0605 41.4063 26.5567 39.4369 27.6726C37.4676 28.7886 35.8813 30.4723 34.8856 32.5035C33.89 34.5347 33.5313 36.8188 33.8566 39.0569C34.1818 41.295 35.1759 43.383 36.7086 45.0476C38.2414 46.7122 40.2415 47.8759 42.4472 48.3865C44.6529 48.8971 46.9616 48.7308 49.0712 47.9093C51.1807 47.0878 52.9929 45.6494 54.2706 43.7823C55.5483 41.9153 56.2321 39.7064 56.2324 37.4448V37.3437C56.2295 37.0538 56.217 36.7641 56.1949 36.475C56.1612 35.9133 56.0937 35.127 55.9625 34.1609C55.7001 32.24 55.1865 29.5927 54.1481 26.6196C52.0788 20.666 47.8877 13.3081 39.4755 8.05842C39.0581 7.79781 38.5933 7.62187 38.1078 7.54067C37.6222 7.45946 37.1254 7.47458 36.6457 7.58515C36.1661 7.69572 35.7129 7.89958 35.3121 8.18509C34.9112 8.4706 34.5707 8.83217 34.3097 9.24916ZM8.06852 9.24916C7.80761 9.66614 7.63147 10.1304 7.55017 10.6154C7.46888 11.1003 7.484 11.5966 7.5947 12.0757C7.7054 12.5548 7.9095 13.0075 8.19534 13.4078C8.48117 13.8082 8.84316 14.1484 9.26062 14.409C13.8257 17.2447 17.4511 21.3635 19.6821 26.2489C17.4258 26.0605 15.1651 26.5567 13.1957 27.6726C11.2264 28.7886 9.64007 30.4723 8.64442 32.5035C7.64876 34.5347 7.2901 36.8188 7.61536 39.0569C7.94062 41.295 8.93465 43.383 10.4674 45.0476C12.0001 46.7122 14.0002 47.8759 16.206 48.3865C18.4117 48.8971 20.7204 48.7308 22.8299 47.9093C24.9395 47.0878 26.7517 45.6494 28.0294 43.7823C29.3071 41.9153 29.9909 39.7064 29.9912 37.4448V37.3437C29.9883 37.0538 29.9758 36.7641 29.9537 36.475C29.92 35.9133 29.8525 35.127 29.7213 34.1609C29.4589 32.24 28.9453 29.5927 27.9069 26.6196C25.8376 20.666 21.6465 13.3081 13.2343 8.05842C12.8168 7.79781 12.3521 7.62187 11.8665 7.54067C11.381 7.45946 10.8842 7.47458 10.4045 7.58515C9.92483 7.69572 9.47165 7.89958 9.07084 8.18509C8.67002 8.4706 8.32944 8.83217 8.06852 9.24916Z" fill="#5D6160"/>
</g>
</svg>
