<svg width="90" height="90" viewBox="0 0 90 90" fill="none" xmlns="http://www.w3.org/2000/svg">
<path fill-rule="evenodd" clip-rule="evenodd" d="M12.0133 78.0073C11.457 77.942 11.0629 77.4324 11.1394 76.8775L20.9189 5.9666C20.993 5.42897 21.4825 5.04861 22.0218 5.10954L61.3502 9.55291C61.6188 9.58326 61.8636 9.72104 62.029 9.93487L78.7422 31.548C78.907 31.7612 78.9789 32.032 78.9414 32.2989L71.6746 84.0319C71.599 84.5701 71.1074 84.9493 70.5676 84.8859L12.0133 78.0073ZM54.6253 34.8072C54.0471 34.7292 53.6582 34.1749 53.7816 33.6047L57.7829 15.1126C57.9091 14.5293 57.4997 13.966 56.9059 13.9061L26.6969 10.859C26.1648 10.8053 25.6846 11.1799 25.6071 11.7091L16.7501 72.2082C16.6688 72.7636 17.0606 73.2772 17.6178 73.3456L65.8705 79.2656C66.4105 79.3319 66.9044 78.9542 66.9821 78.4157L72.7688 38.2722C72.8482 37.7221 72.4636 37.2128 71.9127 37.1385L54.6253 34.8072ZM31.8892 61.5004C31.4287 61.8563 30.7178 61.8281 30.289 61.4347C29.4942 60.7057 28.2922 59.6466 27.5614 58.9141C27.2289 58.5809 27.2429 58.0644 27.5748 57.7306C35.9086 49.3476 54.497 49.4634 60.5561 60.4436C60.8374 60.9534 60.5797 61.5878 60.0426 61.8125C58.9434 62.2725 57.3151 62.9825 56.2058 63.4952C55.6384 63.7575 54.9416 63.4721 54.6337 62.9281C51.4021 57.2169 39.5463 55.5817 31.8892 61.5004ZM46.049 36.198C46.3486 36.6388 46.2498 37.2372 45.8243 37.5583L43.945 38.9765C43.5183 39.2986 42.9136 39.228 42.5726 38.8162L38.5873 34.0052C38.2834 33.6383 37.7629 33.5367 37.3433 33.7625L31.9416 36.6692C31.4702 36.9228 30.8828 36.7604 30.6087 36.3007L28.8382 33.3306C28.541 32.832 28.7292 32.186 29.2478 31.9252L33.5033 29.7846C34.0773 29.4958 34.2339 28.7483 33.8241 28.2534L31.1308 25.0014C30.7531 24.5454 30.8522 23.8629 31.344 23.5331L34.7036 21.2799C35.1601 20.9737 35.7783 21.0934 36.0874 21.548L39.1092 25.9906C39.3914 26.4055 39.9373 26.547 40.3855 26.3215L45.9599 23.5166C46.455 23.2675 47.0583 23.4686 47.3049 23.965L48.6132 26.5984C48.8533 27.0816 48.6667 27.6682 48.1915 27.9239L43.4815 30.4584C42.9592 30.7394 42.7949 31.4106 43.1283 31.9011L46.049 36.198Z" fill="#810F40"/>
</svg>
