<svg width="18" height="18" viewBox="0 0 18 18" fill="none" xmlns="http://www.w3.org/2000/svg">
<path fill-rule="evenodd" clip-rule="evenodd" d="M1.9668 7.21239C1.9668 4.37213 4.26929 2.06964 7.10955 2.06964C9.94981 2.06964 12.2523 4.37213 12.2523 7.21239C12.2523 10.0527 9.94981 12.3551 7.10955 12.3551C4.26929 12.3551 1.9668 10.0527 1.9668 7.21239ZM7.10955 0.569641C3.44086 0.569641 0.466797 3.5437 0.466797 7.21239C0.466797 10.8811 3.44086 13.8551 7.10955 13.8551C8.6736 13.8551 10.1114 13.3146 11.2463 12.4101L15.839 17.0028C16.1319 17.2957 16.6067 17.2957 16.8996 17.0028C17.1925 16.7099 17.1925 16.235 16.8996 15.9421L12.307 11.3495C13.2117 10.2145 13.7523 8.7766 13.7523 7.21239C13.7523 3.5437 10.7782 0.569641 7.10955 0.569641Z" fill="#121212"/>
</svg>
