<svg width="22" height="21" viewBox="0 0 22 21" fill="none" xmlns="http://www.w3.org/2000/svg">
<path d="M20.9646 9.2671L16.7459 12.9074L18.0312 18.3515C18.1021 18.647 18.0838 18.9569 17.9787 19.2421C17.8736 19.5272 17.6863 19.7748 17.4405 19.9536C17.1947 20.1324 16.9015 20.2343 16.5978 20.2465C16.2941 20.2587 15.9936 20.1806 15.7343 20.0221L10.9999 17.1083L6.26275 20.0221C6.00347 20.1797 5.70335 20.257 5.4002 20.2444C5.09704 20.2318 4.8044 20.1297 4.55913 19.9511C4.31386 19.7725 4.12692 19.5253 4.02185 19.2406C3.91679 18.956 3.89829 18.6466 3.96869 18.3515L5.25869 12.9074L1.03994 9.2671C0.810533 9.06882 0.644621 8.80736 0.562925 8.51536C0.481229 8.22336 0.48737 7.91376 0.580581 7.62522C0.673791 7.33669 0.849941 7.08201 1.08703 6.89299C1.32412 6.70397 1.61164 6.58899 1.91369 6.56241L7.44494 6.11616L9.57869 0.952409C9.69419 0.670988 9.89076 0.430267 10.1434 0.260851C10.3961 0.0914349 10.6934 0.000976562 10.9976 0.000976562C11.3018 0.000976562 11.5991 0.0914349 11.8518 0.260851C12.1044 0.430267 12.301 0.670988 12.4165 0.952409L14.5493 6.11616L20.0806 6.56241C20.3832 6.588 20.6716 6.70234 20.9095 6.8911C21.1475 7.07986 21.3244 7.33464 21.4182 7.62352C21.512 7.91241 21.5185 8.22254 21.4368 8.51508C21.3551 8.80761 21.1889 9.06954 20.959 9.26803L20.9646 9.2671Z" fill="#B74F80"/>
</svg>
