<svg width="18" height="18" viewBox="0 0 18 18" fill="none" xmlns="http://www.w3.org/2000/svg">
<path fill-rule="evenodd" clip-rule="evenodd" d="M9 2.8125C5.58274 2.8125 2.8125 5.58274 2.8125 9C2.8125 12.4173 5.58274 15.1875 9 15.1875C12.4173 15.1875 15.1875 12.4173 15.1875 9C15.1875 5.58274 12.4173 2.8125 9 2.8125ZM1.6875 9C1.6875 4.96142 4.96142 1.6875 9 1.6875C13.0386 1.6875 16.3125 4.96142 16.3125 9C16.3125 13.0386 13.0386 16.3125 9 16.3125C4.96142 16.3125 1.6875 13.0386 1.6875 9ZM9.5625 8.4375V5.25C9.5625 4.93934 9.31066 4.6875 9 4.6875C8.68934 4.6875 8.4375 4.93934 8.4375 5.25V9C8.4375 9.31066 8.68934 9.5625 9 9.5625H11.625C11.9357 9.5625 12.1875 9.31066 12.1875 9C12.1875 8.68934 11.9357 8.4375 11.625 8.4375H9.5625Z" fill="#3E3E59"/>
</svg>
