<svg width="18" height="18" viewBox="0 0 18 18" fill="none" xmlns="http://www.w3.org/2000/svg">
<path fill-rule="evenodd" clip-rule="evenodd" d="M6.25 6C6.25 4.65381 7.34131 3.5625 8.6875 3.5625C10.0337 3.5625 11.125 4.65381 11.125 6C11.125 7.34619 10.0337 8.4375 8.6875 8.4375C7.34131 8.4375 6.25 7.34619 6.25 6ZM8.6875 2.4375C6.71999 2.4375 5.125 4.03249 5.125 6C5.125 7.96751 6.71999 9.5625 8.6875 9.5625C10.655 9.5625 12.25 7.96751 12.25 6C12.25 4.03249 10.655 2.4375 8.6875 2.4375ZM5.46393 12.4485C5.92105 11.9913 6.54103 11.7345 7.1875 11.7345H10.1875C10.834 11.7345 11.454 11.9913 11.9111 12.4485C12.3682 12.9056 12.625 13.5256 12.625 14.172V15.672C12.625 15.9827 12.8768 16.2345 13.1875 16.2345C13.4982 16.2345 13.75 15.9827 13.75 15.672V14.172C13.75 13.2272 13.3747 12.3211 12.7066 11.653C12.0385 10.9849 11.1323 10.6095 10.1875 10.6095H7.1875C6.24267 10.6095 5.33653 10.9849 4.66843 11.653C4.00033 12.3211 3.625 13.2272 3.625 14.172V15.672C3.625 15.9827 3.87684 16.2345 4.1875 16.2345C4.49816 16.2345 4.75 15.9827 4.75 15.672V14.172C4.75 13.5256 5.00681 12.9056 5.46393 12.4485Z" fill="#3E3E59"/>
</svg>
